<svg width="327" height="464" viewBox="0 0 327 464" fill="none" xmlns="http://www.w3.org/2000/svg">
<path opacity="0.057971" d="M113.153 459.619C103.737 463.326 93.0244 460.485 86.7415 452.614L7.23357 353.015C3.42941 348.249 1.69026 342.161 2.40018 336.095L24.7953 144.715C25.3585 139.902 27.4319 135.383 30.7189 131.804L142.995 9.5462C148.81 3.21367 157.662 0.620655 165.955 2.82018L271.761 30.8824C280.054 33.082 286.41 39.7083 288.248 48.0706L323.724 209.516C324.763 214.242 324.276 219.182 322.332 223.629L245.054 400.452C242.604 406.057 238.022 410.469 232.321 412.713L113.153 459.619Z" stroke="url(#paint0_linear_58327_801)" stroke-width="4"/>
<defs>
<linearGradient id="paint0_linear_58327_801" x1="96.6616" y1="468.255" x2="228.082" y2="-27.2533" gradientUnits="userSpaceOnUse">
<stop stop-color="#FF1CF7"/>
<stop offset="1" stop-color="#00F0FF"/>
</linearGradient>
</defs>
</svg>
