<svg class="hexagono" width="21" height="191" viewBox="0 0 21 191" fill="none" xmlns="http://www.w3.org/2000/svg">
<path d="M88.6648 4.90588C94.9252 1.92172 102.198 1.92172 108.458 4.90588L166.898 32.7628C173.229 35.7807 177.838 41.5225 179.413 48.3568L193.753 110.541C195.338 117.418 193.679 124.643 189.251 130.139L148.956 180.154C144.589 185.573 138.004 188.724 131.045 188.724H66.0777C59.1185 188.724 52.5335 185.573 48.1674 180.154L7.87198 130.139C3.44408 124.643 1.78461 117.418 3.37044 110.541L17.7095 48.3568C19.2854 41.5225 23.8936 35.7807 30.2247 32.7628L88.6648 4.90588Z" stroke="url(#paint0_linear_58327_866)" stroke-width="4"/>
<defs>
<linearGradient id="paint0_linear_58327_866" x1="98.5615" y1="-2.02722" x2="98.5615" y2="208.37" gradientUnits="userSpaceOnUse">
<stop stop-color="#FF1CF7"/>
<stop offset="1" stop-color="#00F0FF"/>
</linearGradient>
</defs>
</svg>
