<svg width="320" height="249" viewBox="0 0 320 249" fill="none" xmlns="http://www.w3.org/2000/svg">
<path opacity="0.565217" d="M313.617 112.4C318.446 119.953 318.446 129.625 313.617 137.179L264.062 214.685C260.577 220.136 254.958 223.867 248.581 224.963L124.554 246.286C119.123 247.219 113.538 246.172 108.814 243.335L13.3749 186.007C6.4527 181.849 2.21802 174.366 2.21802 166.291V83.2875C2.21802 75.2125 6.4527 67.729 13.3749 63.571L108.814 6.24366C113.538 3.40624 119.123 2.35908 124.554 3.29272L248.581 24.615C254.958 25.7112 260.577 29.4422 264.062 34.8931L313.617 112.4Z" stroke="url(#paint0_linear_58327_836)" stroke-width="4"/>
<defs>
<linearGradient id="paint0_linear_58327_836" x1="323.912" y1="124.789" x2="-29.4157" y2="124.789" gradientUnits="userSpaceOnUse">
<stop stop-color="#FF1CF7"/>
<stop offset="1" stop-color="#00F0FF"/>
</linearGradient>
</defs>
</svg>
